<svg width="20" height="21" viewBox="0 0 20 21" fill="none" xmlns="http://www.w3.org/2000/svg">
<g id="&#240;&#159;&#166;&#134; icon &#34;lock&#34;">
<path id="Vector" d="M15 7.16668H14.1667V5.50001C14.1667 3.20001 12.3 1.33334 9.99999 1.33334C7.69999 1.33334 5.83333 3.20001 5.83333 5.50001V7.16668H4.99999C4.08333 7.16668 3.33333 7.91668 3.33333 8.83334V17.1667C3.33333 18.0833 4.08333 18.8333 4.99999 18.8333H15C15.9167 18.8333 16.6667 18.0833 16.6667 17.1667V8.83334C16.6667 7.91668 15.9167 7.16668 15 7.16668ZM7.49999 5.50001C7.49999 4.11668 8.61666 3.00001 9.99999 3.00001C11.3833 3.00001 12.5 4.11668 12.5 5.50001V7.16668H7.49999V5.50001ZM15 17.1667H4.99999V8.83334H15V17.1667ZM9.99999 14.6667C10.9167 14.6667 11.6667 13.9167 11.6667 13C11.6667 12.0833 10.9167 11.3333 9.99999 11.3333C9.08333 11.3333 8.33333 12.0833 8.33333 13C8.33333 13.9167 9.08333 14.6667 9.99999 14.6667Z" fill="#667085"/>
</g>
</svg>
